<svg width="20" height="20" viewBox="0 0 20 20" fill="none" xmlns="http://www.w3.org/2000/svg">
<path d="M1.95122 20C1.41463 20 0.955285 19.8092 0.573171 19.4275C0.191057 19.0459 0 18.5871 0 18.0512V4.40926C0 3.87333 0.191057 3.41454 0.573171 3.03289C0.955285 2.65124 1.41463 2.46041 1.95122 2.46041H10.6585L8.70732 4.40926H1.95122V18.0512H15.6098V11.2789L17.561 9.33009V18.0512C17.561 18.5871 17.3699 19.0459 16.9878 19.4275C16.6057 19.8092 16.1463 20 15.6098 20H1.95122ZM12.8537 3.02071L14.2439 4.3849L7.80488 10.8161V12.2046H9.17073L15.6341 5.74909L17.0244 7.11328L10 14.1535H5.85366V10.0122L12.8537 3.02071ZM17.0244 7.11328L12.8537 3.02071L15.2927 0.584653C15.6829 0.194884 16.1504 0 16.6951 0C17.2398 0 17.6992 0.194884 18.0732 0.584653L19.439 1.9732C19.813 2.34673 20 2.80146 20 3.33739C20 3.87333 19.813 4.32806 19.439 4.70158L17.0244 7.11328Z" fill="#57555E"/>
</svg>
