<svg width="27" height="27" viewBox="0 0 27 27" fill="none" xmlns="http://www.w3.org/2000/svg">
<mask id="mask0_18_25" style="mask-type:alpha" maskUnits="userSpaceOnUse" x="0" y="0" width="27" height="27">
<rect x="0.591553" y="0.370117" width="26" height="26" fill="#D9D9D9"/>
</mask>
<g mask="url(#mask0_18_25)">
<path d="M20.0915 15.5368V12.2868H16.8415V10.1202H20.0915V6.87016H22.2582V10.1202H25.5082V12.2868H22.2582V15.5368H20.0915ZM10.3415 13.3702C9.14987 13.3702 8.12973 12.9459 7.28112 12.0972C6.4325 11.2486 6.0082 10.2285 6.0082 9.03682C6.0082 7.84516 6.4325 6.82502 7.28112 5.97641C8.12973 5.1278 9.14987 4.70349 10.3415 4.70349C11.5332 4.70349 12.5533 5.1278 13.4019 5.97641C14.2506 6.82502 14.6749 7.84516 14.6749 9.03682C14.6749 10.2285 14.2506 11.2486 13.4019 12.0972C12.5533 12.9459 11.5332 13.3702 10.3415 13.3702ZM1.67487 22.0368V19.0035C1.67487 18.3896 1.83285 17.8254 2.14882 17.3108C2.4648 16.7962 2.88459 16.4035 3.4082 16.1327C4.52764 15.5729 5.66514 15.1531 6.8207 14.8733C7.97625 14.5934 9.14987 14.4535 10.3415 14.4535C11.5332 14.4535 12.7068 14.5934 13.8624 14.8733C15.0179 15.1531 16.1554 15.5729 17.2749 16.1327C17.7985 16.4035 18.2183 16.7962 18.5342 17.3108C18.8502 17.8254 19.0082 18.3896 19.0082 19.0035V22.0368H1.67487ZM3.84153 19.8702H16.8415V19.0035C16.8415 18.8049 16.7919 18.6243 16.6926 18.4618C16.5933 18.2993 16.4624 18.1729 16.2999 18.0827C15.3249 17.5952 14.3408 17.2295 13.3478 16.9858C12.3547 16.742 11.3526 16.6202 10.3415 16.6202C9.33042 16.6202 8.32834 16.742 7.33528 16.9858C6.34223 17.2295 5.3582 17.5952 4.3832 18.0827C4.2207 18.1729 4.0898 18.2993 3.99049 18.4618C3.89119 18.6243 3.84153 18.8049 3.84153 19.0035V19.8702ZM10.3415 11.2035C10.9374 11.2035 11.4474 10.9913 11.8717 10.567C12.296 10.1427 12.5082 9.63266 12.5082 9.03682C12.5082 8.44099 12.296 7.93092 11.8717 7.50662C11.4474 7.08231 10.9374 6.87016 10.3415 6.87016C9.7457 6.87016 9.23563 7.08231 8.81132 7.50662C8.38702 7.93092 8.17487 8.44099 8.17487 9.03682C8.17487 9.63266 8.38702 10.1427 8.81132 10.567C9.23563 10.9913 9.7457 11.2035 10.3415 11.2035Z" fill="#1C1B1F"/>
</g>
</svg>
