<svg width="1080" height="1080" viewBox="0 0 1080 1080" fill="none" xmlns="http://www.w3.org/2000/svg">
<rect width="1080" height="1080" fill="#1E1E1E"/>
<g clip-path="url(#clip0_0_1)">
<rect width="1080" height="1080" fill="white"/>
<rect width="1080" height="1080" fill="#7289DA"/>
<path d="M783.743 378.72C739.157 344.16 685.652 326.88 629.175 324L620.257 332.641C670.789 344.16 715.377 367.199 756.991 398.88C706.459 372.96 649.982 355.68 590.532 349.92C572.698 347.04 557.834 347.04 540 347.04C522.166 347.04 507.302 347.04 489.468 349.92C430.018 355.68 373.541 372.96 323.009 398.88C364.623 367.199 409.211 344.16 459.743 332.641L450.825 324C394.348 326.88 340.843 344.16 296.257 378.72C245.725 470.881 218.972 574.561 216 681.118C260.586 727.2 323.009 756 388.404 756C388.404 756 409.211 732.96 424.073 712.799C385.432 704.16 349.761 683.999 325.982 652.32C346.789 663.839 367.596 675.36 388.404 683.999C415.157 695.519 441.909 701.28 468.661 707.04C492.441 709.919 516.22 712.799 540 712.799C563.78 712.799 587.559 709.919 611.339 707.04C638.091 701.28 664.843 695.519 691.596 683.999C712.404 675.36 733.211 663.839 754.018 652.32C730.239 683.999 694.568 704.16 655.927 712.799C670.789 732.96 691.596 756 691.596 756C756.991 756 819.414 727.2 864 681.118C861.027 574.561 834.275 470.881 783.743 378.72ZM441.909 629.279C412.184 629.279 385.432 603.359 385.432 571.68C385.432 540 412.184 514.08 441.909 514.08C471.634 514.08 498.386 540 498.386 571.68C498.386 603.359 471.634 629.279 441.909 629.279ZM638.091 629.279C608.366 629.279 581.614 603.359 581.614 571.68C581.614 540 608.366 514.08 638.091 514.08C667.816 514.08 694.568 540 694.568 571.68C694.568 603.359 667.816 629.279 638.091 629.279Z" fill="white"/>
</g>
<defs>
<clipPath id="clip0_0_1">
<rect width="1080" height="1080" fill="white"/>
</clipPath>
</defs>
</svg>
