<svg width="1080" height="1080" viewBox="0 0 1080 1080" fill="none" xmlns="http://www.w3.org/2000/svg">
<rect width="1080" height="1080" fill="#1E1E1E"/>
<rect width="1080" height="1080" fill="white"/>
<mask id="mask0_0_1" style="mask-type:alpha" maskUnits="userSpaceOnUse" x="140" y="140" width="800" height="800">
<rect x="140" y="140" width="800" height="800" fill="#D9D9D9"/>
</mask>
<g mask="url(#mask0_0_1)">
<path d="M306.667 840C288.333 840 272.639 833.472 259.583 820.417C246.528 807.361 240 791.667 240 773.333V306.667C240 288.333 246.528 272.639 259.583 259.583C272.639 246.528 288.333 240 306.667 240H540V306.667H306.667V773.333H773.333V540H840V773.333C840 791.667 833.472 807.361 820.417 820.417C807.361 833.472 791.667 840 773.333 840H306.667ZM463.333 663.333L416.667 616.667L726.667 306.667H606.667V240H840V473.333H773.333V353.333L463.333 663.333Z" fill="#828282"/>
</g>
</svg>
