<svg width="1080" height="1080" viewBox="0 0 1080 1080" fill="none" xmlns="http://www.w3.org/2000/svg">
<rect width="1080" height="1080" fill="#1E1E1E"/>
<g clip-path="url(#clip0_0_1)">
<rect width="1080" height="1080" fill="white"/>
<path d="M1080 0H0V1080H1080V0Z" fill="#231E1B"/>
<path fill-rule="evenodd" clip-rule="evenodd" d="M539.174 276.48C390.55 276.48 270 397.03 270 545.654C270 664.553 347.615 765.287 453.303 801.618C466.514 803.269 471.468 795.012 471.468 788.407C471.468 781.801 471.468 765.287 471.468 742.168C397.156 758.682 380.642 705.838 380.642 705.838C369.083 674.462 350.917 666.205 350.917 666.205C326.147 649.691 352.569 649.691 352.569 649.691C378.991 651.342 393.853 677.764 393.853 677.764C418.624 719.049 456.606 707.489 471.468 700.884C473.119 682.719 481.376 671.159 487.982 664.553C428.532 657.948 365.78 634.829 365.78 530.792C365.78 501.067 375.688 477.948 393.853 458.131C392.202 453.177 382.294 425.104 397.156 388.774C397.156 388.774 420.275 382.168 471.468 416.847C492.936 410.241 516.055 408.59 539.174 408.59C562.294 408.59 585.413 411.893 606.881 416.847C658.073 382.168 681.193 388.774 681.193 388.774C696.055 425.104 686.147 453.177 684.495 459.783C701.009 477.948 712.569 502.719 712.569 532.443C712.569 636.48 649.817 657.948 590.367 664.553C600.275 672.81 608.532 689.324 608.532 714.095C608.532 750.425 608.532 778.498 608.532 788.407C608.532 795.012 613.486 803.269 626.697 801.618C734.037 765.287 810 664.553 810 545.654C808.349 397.03 687.798 276.48 539.174 276.48Z" fill="white"/>
</g>
<defs>
<clipPath id="clip0_0_1">
<rect width="1080" height="1080" fill="white"/>
</clipPath>
</defs>
</svg>
