<svg width="1080" height="1080" viewBox="0 0 1080 1080" fill="none" xmlns="http://www.w3.org/2000/svg">
<rect width="1080" height="1080" fill="#1E1E1E"/>
<g clip-path="url(#clip0_0_1)">
<rect width="1080" height="1080" fill="white"/>
<rect width="1080" height="1080" fill="url(#paint0_radial_0_1)"/>
<path d="M540 318.795C611.566 318.795 621.325 318.795 650.602 318.795C676.627 318.795 689.639 325.301 699.398 328.554C712.41 335.06 722.169 338.313 731.928 348.072C741.687 357.831 748.193 367.59 751.446 380.602C754.699 390.361 757.952 403.374 761.205 429.398C761.205 458.675 761.205 465.181 761.205 540C761.205 614.819 761.205 621.325 761.205 650.602C761.205 676.627 754.699 689.639 751.446 699.398C744.94 712.41 741.687 722.169 731.928 731.928C722.169 741.687 712.41 748.193 699.398 751.446C689.639 754.699 676.627 757.952 650.602 761.205C621.325 761.205 614.819 761.205 540 761.205C465.181 761.205 458.675 761.205 429.398 761.205C403.374 761.205 390.361 754.699 380.602 751.446C367.59 744.94 357.831 741.687 348.072 731.928C338.313 722.169 331.807 712.41 328.554 699.398C325.301 689.639 322.048 676.627 318.795 650.602C318.795 621.325 318.795 614.819 318.795 540C318.795 465.181 318.795 458.675 318.795 429.398C318.795 403.374 325.301 390.361 328.554 380.602C335.06 367.59 338.313 357.831 348.072 348.072C357.831 338.313 367.59 331.807 380.602 328.554C390.361 325.301 403.374 322.048 429.398 318.795C458.675 318.795 468.434 318.795 540 318.795ZM540 270C465.181 270 458.675 270 429.398 270C400.121 270 380.602 276.506 364.337 283.012C348.072 289.518 331.807 299.277 315.542 315.542C299.277 331.807 292.771 344.819 283.012 364.337C276.506 380.602 273.253 400.121 270 429.398C270 458.675 270 468.434 270 540C270 614.819 270 621.325 270 650.602C270 679.88 276.506 699.398 283.012 715.663C289.518 731.928 299.277 748.193 315.542 764.458C331.807 780.723 344.819 787.229 364.337 796.988C380.602 803.494 400.121 806.747 429.398 810C458.675 810 468.434 810 540 810C611.566 810 621.325 810 650.602 810C679.88 810 699.398 803.494 715.663 796.988C731.928 790.482 748.193 780.723 764.458 764.458C780.723 748.193 787.229 735.181 796.988 715.663C803.494 699.398 806.747 679.88 810 650.602C810 621.325 810 611.566 810 540C810 468.434 810 458.675 810 429.398C810 400.121 803.494 380.602 796.988 364.337C790.482 348.072 780.723 331.807 764.458 315.542C748.193 299.277 735.181 292.771 715.663 283.012C699.398 276.506 679.88 273.253 650.602 270C621.325 270 614.819 270 540 270Z" fill="white"/>
<path d="M540 400.12C461.928 400.12 400.12 461.928 400.12 540C400.12 618.072 461.928 679.88 540 679.88C618.072 679.88 679.88 618.072 679.88 540C679.88 461.928 618.072 400.12 540 400.12ZM540 631.084C491.205 631.084 448.916 592.048 448.916 540C448.916 491.205 487.952 448.916 540 448.916C588.795 448.916 631.084 487.952 631.084 540C631.084 588.795 588.795 631.084 540 631.084Z" fill="white"/>
<path d="M683.133 429.398C701.098 429.398 715.663 414.833 715.663 396.868C715.663 378.902 701.098 364.337 683.133 364.337C665.167 364.337 650.602 378.902 650.602 396.868C650.602 414.833 665.167 429.398 683.133 429.398Z" fill="white"/>
</g>
<defs>
<radialGradient id="paint0_radial_0_1" cx="0" cy="0" r="1" gradientUnits="userSpaceOnUse" gradientTransform="translate(1101.73 21.9375) scale(2494.04)">
<stop stop-color="#F9ED32"/>
<stop offset="0.36" stop-color="#EE2A7B"/>
<stop offset="0.44" stop-color="#D22A8A"/>
<stop offset="0.6" stop-color="#8B2AB2"/>
<stop offset="0.83" stop-color="#1B2AF0"/>
<stop offset="0.88" stop-color="#002AFF"/>
</radialGradient>
<clipPath id="clip0_0_1">
<rect width="1080" height="1080" fill="white"/>
</clipPath>
</defs>
</svg>
