<svg width="1080" height="1080" viewBox="0 0 1080 1080" fill="none" xmlns="http://www.w3.org/2000/svg">
<rect width="1080" height="1080" fill="#1E1E1E"/>
<g clip-path="url(#clip0_0_1)">
<rect width="1080" height="1080" fill="white"/>
<rect width="1080" height="1080" fill="#27A6E5"/>
<path d="M756 340.26L674.854 763.891C674.854 763.891 663.5 793.263 632.31 779.177L445.084 630.52L444.215 630.081C469.505 606.566 665.615 423.972 674.186 415.695C687.454 402.877 679.217 395.246 663.811 404.929L374.133 595.43L262.376 556.491C262.376 556.491 244.789 550.012 243.097 535.926C241.383 521.816 262.955 514.185 262.955 514.185L718.555 329.102C718.555 329.102 756 312.064 756 340.26V340.26Z" fill="#FEFEFE"/>
</g>
<defs>
<clipPath id="clip0_0_1">
<rect width="1080" height="1080" fill="white"/>
</clipPath>
</defs>
</svg>
