<svg width="1080" height="1080" viewBox="0 0 1080 1080" fill="none" xmlns="http://www.w3.org/2000/svg">
<rect width="1080" height="1080" fill="#1E1E1E"/>
<g clip-path="url(#clip0_0_1)">
<rect width="1080" height="1080" fill="white"/>
<rect width="1080" height="1080" fill="#55ACE3"/>
<path d="M826.2 402.3C807.3 410.4 785.7 415.8 764.1 418.5C785.7 405 804.6 383.4 812.7 359.1C791.1 372.6 769.5 380.7 742.5 386.1C723.6 364.5 693.9 351 664.2 351C604.8 351 556.2 399.6 556.2 459C556.2 467.1 556.2 475.2 558.9 483.3C469.8 477.9 388.8 434.7 334.8 369.9C326.7 386.1 321.3 405 321.3 423.9C321.3 461.7 340.2 494.1 369.9 513C351 513 334.8 507.6 321.3 499.5C321.3 550.8 359.1 596.7 407.7 604.8C399.6 607.5 388.8 607.5 378 607.5C369.9 607.5 364.5 607.5 356.4 604.8C369.9 648 410.4 680.4 459 680.4C421.2 710.1 375.3 726.3 324 726.3C315.9 726.3 307.8 726.3 297 723.6C345.6 753.3 402.3 772.2 464.4 772.2C664.2 772.2 772.2 607.5 772.2 464.4V450.9C793.8 442.8 812.7 423.9 826.2 402.3Z" fill="white"/>
</g>
<defs>
<clipPath id="clip0_0_1">
<rect width="1080" height="1080" fill="white"/>
</clipPath>
</defs>
</svg>
