<svg width="1080" height="1080" viewBox="0 0 1080 1080" fill="none" xmlns="http://www.w3.org/2000/svg">
<rect width="1080" height="1080" fill="#1E1E1E"/>
<g clip-path="url(#clip0_0_1)">
<rect width="1080" height="1080" fill="white"/>
<rect width="1080" height="1080" fill="#0077FF"/>
<path d="M566.528 729C363.581 729 247.823 587.108 243 351H344.659C347.998 524.297 422.944 597.703 482.307 612.838V351H578.029V500.459C636.65 494.027 698.239 425.919 719.016 351H814.739C806.91 389.855 791.303 426.645 768.895 459.068C746.488 491.49 717.761 518.849 684.512 539.432C721.625 558.24 754.407 584.86 780.692 617.537C806.977 650.214 826.168 688.204 837 729H731.631C721.908 693.565 702.146 661.846 674.822 637.816C647.497 613.787 613.827 598.516 578.029 593.919V729H566.528V729Z" fill="white"/>
</g>
<defs>
<clipPath id="clip0_0_1">
<rect width="1080" height="1080" fill="white"/>
</clipPath>
</defs>
</svg>
