<svg width="1080" height="1080" viewBox="0 0 1080 1080" fill="none" xmlns="http://www.w3.org/2000/svg">
<rect width="1080" height="1080" fill="#1E1E1E"/>
<g clip-path="url(#clip0_0_1)">
<rect width="1080" height="1080" fill="white"/>
<rect width="1080" height="1080" fill="#48C95F"/>
<path d="M754.024 325.687C700.683 272.531 629.561 243 554.488 243C398.415 243 271.976 369 271.976 524.531C271.976 573.75 285.805 622.969 309.512 664.312L270 810L420.146 770.625C461.634 792.281 507.073 804.094 554.488 804.094C710.561 804.094 837 678.094 837 522.563C835.024 449.719 807.366 378.844 754.024 325.687ZM690.805 624.937C684.878 640.687 657.219 656.437 643.39 658.406C631.537 660.375 615.732 660.375 599.927 656.438C590.049 652.5 576.22 648.563 560.415 640.688C489.293 611.156 443.854 540.281 439.902 534.375C435.951 530.437 410.268 496.969 410.268 461.531C410.268 426.094 428.049 410.344 433.976 402.469C439.902 394.594 447.805 394.594 453.732 394.594C457.683 394.594 463.61 394.594 467.561 394.594C471.512 394.594 477.439 392.625 483.366 406.406C489.293 420.187 503.122 455.625 505.098 457.594C507.073 461.531 507.073 465.469 505.098 469.406C503.122 473.344 501.146 477.281 497.195 481.219C493.244 485.156 489.293 491.062 487.317 493.031C483.366 496.969 479.415 500.906 483.366 506.812C487.317 514.687 501.146 536.344 522.878 556.031C550.537 579.656 572.268 587.531 580.171 591.469C588.073 595.406 592.024 593.437 595.976 589.5C599.927 585.562 613.756 569.813 617.707 561.938C621.659 554.063 627.585 556.031 633.512 558C639.439 559.969 675 577.688 680.927 581.625C688.829 585.563 692.78 587.531 694.756 589.5C696.732 595.406 696.732 609.187 690.805 624.937Z" fill="white"/>
</g>
<defs>
<clipPath id="clip0_0_1">
<rect width="1080" height="1080" fill="white"/>
</clipPath>
</defs>
</svg>
