<svg width="1080" height="1080" viewBox="0 0 1080 1080" fill="none" xmlns="http://www.w3.org/2000/svg">
<rect width="1080" height="1080" fill="#1E1E1E"/>
<g clip-path="url(#clip0_0_1)">
<rect width="1080" height="1080" fill="white"/>
<rect width="1080" height="1080" fill="#F40000"/>
<path fill-rule="evenodd" clip-rule="evenodd" d="M304.087 730.534C293.496 727.401 283.833 721.826 275.912 714.281C267.991 706.736 262.046 697.442 258.578 687.183C238.759 634.159 232.887 412.747 271.056 369.038C283.759 354.819 301.695 346.065 320.97 344.675C423.366 333.927 739.732 335.36 776.066 348.258C786.286 351.495 795.622 356.947 803.377 364.206C811.131 371.466 817.102 380.344 820.842 390.176C842.496 444.992 843.23 644.191 817.906 696.856C811.188 710.566 799.942 721.671 785.975 728.384C747.806 747.014 354.735 746.656 304.087 730.534V730.534ZM466.674 626.635L650.181 533.485L466.674 439.617V626.635Z" fill="white"/>
</g>
<defs>
<clipPath id="clip0_0_1">
<rect width="1080" height="1080" fill="white"/>
</clipPath>
</defs>
</svg>
