<svg width="30" height="30" viewBox="0 0 30 30" fill="none" xmlns="http://www.w3.org/2000/svg">
<g clip-path="url(#clip0_1_29323)">
<rect width="30" height="30" rx="15" fill="#F5F5F5"/>
<rect width="30" height="30" fill="black"/>
<path d="M21.7706 10.52C20.5321 9.55999 19.0459 9.08001 17.4771 9L17.2294 9.24002C18.633 9.55999 19.8716 10.2 21.0275 11.08C19.6239 10.36 18.055 9.88001 16.4037 9.72C15.9083 9.63999 15.4954 9.63999 15 9.63999C14.5046 9.63999 14.0917 9.63999 13.5963 9.72C11.945 9.88001 10.3761 10.36 8.97248 11.08C10.1284 10.2 11.367 9.55999 12.7706 9.24002L12.5229 9C10.9541 9.08001 9.46787 9.55999 8.22936 10.52C6.82569 13.08 6.08257 15.96 6 18.92C7.23851 20.2 8.97247 21 10.789 21C10.789 21 11.367 20.36 11.7798 19.8C10.7064 19.56 9.71559 19 9.05505 18.12C9.63302 18.44 10.211 18.76 10.789 19C11.5321 19.32 12.2753 19.48 13.0184 19.64C13.6789 19.72 14.3395 19.8 15 19.8C15.6605 19.8 16.3211 19.72 16.9816 19.64C17.7247 19.48 18.4679 19.32 19.211 19C19.789 18.76 20.367 18.44 20.945 18.12C20.2844 19 19.2936 19.56 18.2202 19.8C18.633 20.36 19.211 21 19.211 21C21.0275 21 22.7615 20.2 24 18.92C23.9174 15.96 23.1743 13.08 21.7706 10.52ZM12.2752 17.48C11.4496 17.48 10.7064 16.76 10.7064 15.88C10.7064 15 11.4496 14.28 12.2752 14.28C13.1009 14.28 13.8441 15 13.8441 15.88C13.8441 16.76 13.1009 17.48 12.2752 17.48ZM17.7247 17.48C16.8991 17.48 16.1559 16.76 16.1559 15.88C16.1559 15 16.8991 14.28 17.7247 14.28C18.5504 14.28 19.2936 15 19.2936 15.88C19.2936 16.76 18.5504 17.48 17.7247 17.48Z" fill="white"/>
</g>
<defs>
<clipPath id="clip0_1_29323">
<rect width="30" height="30" rx="15" fill="white"/>
</clipPath>
</defs>
</svg>
