<svg width="30" height="30" viewBox="0 0 30 30" fill="none" xmlns="http://www.w3.org/2000/svg">
<g clip-path="url(#clip0_1_29321)">
<rect width="30" height="30" rx="15" fill="#F5F5F5"/>
<rect width="30" height="30" fill="black"/>
<path d="M22.95 11.175C22.425 11.4 21.825 11.55 21.225 11.625C21.825 11.25 22.35 10.65 22.575 9.975C21.975 10.35 21.375 10.575 20.625 10.725C20.1 10.125 19.275 9.75 18.45 9.75C16.8 9.75 15.45 11.1 15.45 12.75C15.45 12.975 15.45 13.2 15.525 13.425C13.05 13.275 10.8 12.075 9.3 10.275C9.075 10.725 8.925 11.25 8.925 11.775C8.925 12.825 9.45 13.725 10.275 14.25C9.75 14.25 9.3 14.1 8.925 13.875C8.925 15.3 9.97499 16.575 11.325 16.8C11.1 16.875 10.8 16.875 10.5 16.875C10.275 16.875 10.125 16.875 9.9 16.8C10.275 18 11.4 18.9 12.75 18.9C11.7 19.725 10.425 20.175 9 20.175C8.775 20.175 8.55 20.175 8.25 20.1C9.6 20.925 11.175 21.45 12.9 21.45C18.45 21.45 21.45 16.875 21.45 12.9V12.525C22.05 12.3 22.575 11.775 22.95 11.175Z" fill="white"/>
</g>
<defs>
<clipPath id="clip0_1_29321">
<rect width="30" height="30" rx="15" fill="white"/>
</clipPath>
</defs>
</svg>
